<svg xmlns="http://www.w3.org/2000/svg" viewBox="0 0 220.84 220.84"><defs><style>.a{fill:#f7323f;}.b{fill:#fff;}.c{fill:#160e28;}</style></defs><title>cwlogo-alt</title><circle class="a" cx="110.42" cy="110.42" r="110.42"/><path class="b" d="M48.88,81.26a.88.88,0,0,0-1.23-.35A34.24,34.24,0,0,0,65,144.68a34,34,0,0,0,14.37-3.19.88.88,0,0,0,.41-1.21ZM190,78a.88.88,0,0,0-.76-.43H158.78a.88.88,0,0,0-.78,1.29L173.23,108a.88.88,0,0,0,1.57,0L190,78.88A.88.88,0,0,0,190,78Zm-36.39,0h0l.22.42-16.29,31L155,142.8a.88.88,0,0,0,1.57,0l15.25-29.14a.88.88,0,0,0,0-.82Zm-36.46,0a.88.88,0,0,0-.78-.47H85.78A.88.88,0,0,0,85,78.86l33.5,63.94a.88.88,0,0,0,1.57,0l15.27-29.18a.88.88,0,0,0,0-.82Z"/><path class="c" d="M93.38,124.6a8.48,8.48,0,1,0,8.48,8.48A8.49,8.49,0,0,0,93.38,124.6Zm-11.63-44a34,34,0,0,0-29.22-2,.88.88,0,0,0-.46,1.23l14.75,28.18a.88.88,0,0,0,1.57,0L82.1,81.75A.88.88,0,0,0,81.75,80.57ZM153.59,78l0,0-.08-.1-.08-.09-.05,0-.16-.1-.08,0a.83.83,0,0,0-.29-.06H122.28a.88.88,0,0,0-.78,1.29l15.24,29.09.78,1.49,16.29-31Z"/></svg>