<svg id="Layer_1" data-name="Layer 1" xmlns="http://www.w3.org/2000/svg" viewBox="0 0 58.25 8.59"><title>logo</title><path d="M161.1,357.71h-1.39l-0.26,1.52a0.79,0.79,0,0,1-.86.77,0.54,0.54,0,0,1-.6-0.77l0.82-4.61a0.79,0.79,0,0,1,.86-0.77c0.44,0,.7.18,0.6,0.77L160,355.94h1.39l0.28-1.54c0.22-1.25-.65-1.77-1.8-1.77h0c-1.39,0-2.21.53-2.42,1.77l-0.89,5c-0.24,1.31.65,1.77,1.8,1.77h0c1.39,0,2.19-.48,2.42-1.77Zm2.71-5-3,8.4h1.38l0.62-1.87h1.55l0,1.87h1.38l-0.11-8.4h-1.75Zm0.53,5.37h-1.18l1.25-3.73Zm6.92-2.1,0.26-1.5c0.23-1.27-.65-1.78-1.8-1.78h-2.17l-1.48,8.4h1.39l0.59-3.35h0.74l0.47,3.35h1.38l-0.56-3.54A1.89,1.89,0,0,0,171.27,356Zm-1.16-1.28-0.19,1.09a0.81,0.81,0,0,1-.9.77h-0.73l0.46-2.63h0.73A0.56,0.56,0,0,1,170.1,354.72Zm4-2h-1.39l-1.48,8.4h3.54l0.22-1.25h-2.15Zm10.45,0-1.74,6,0-6h-1.25l-2.13,6,0.37-6h-1.34l-0.16,8.4h1.35l2.1-5.76,0.06,5.76h1.31l2.79-8.4h-1.34Zm2.47,0-3,8.4h1.38l0.62-1.87h1.55l0,1.87h1.38l-0.11-8.4H187Zm0.53,5.37h-1.18l1.25-3.73Zm4.61-5.37h-1.39l-1.48,8.4h3.54l0.22-1.25H190.9Zm4.81,0h-2.15l-1.48,8.4h2.15c1.39,0,2.19-.5,2.42-1.77l0.85-4.85C199,353.23,198.12,352.73,197,352.73Zm0.37,2-0.78,4.41a0.81,0.81,0,0,1-.9.77H195l1-5.95h0.71A0.56,0.56,0,0,1,197.34,354.72Zm4.84-2H200l-1.48,8.4h1.39l0.59-3.35h0.74l0.47,3.35h1.38l-0.56-3.54a1.89,1.89,0,0,0,1.18-1.58l0.26-1.5C204.2,353.23,203.33,352.73,202.18,352.73Zm0.37,2-0.19,1.09a0.81,0.81,0,0,1-.9.77h-0.73l0.46-2.63h0.73A0.56,0.56,0,0,1,202.55,354.72Zm4.78-2.09h-0.1c-1.39,0-2.19.49-2.42,1.77l-0.89,5c-0.23,1.27.65,1.77,1.8,1.77h0.1c1.39,0,2.19-.5,2.42-1.77l0.89-5C209.34,353.14,208.48,352.63,207.33,352.63Zm0.37,2-0.82,4.61a0.81,0.81,0,0,1-.9.77,0.56,0.56,0,0,1-.64-0.77l0.82-4.61a0.8,0.8,0,0,1,.9-0.77A0.56,0.56,0,0,1,207.7,354.62Zm5.8-1.9-0.91,5.19-0.88-5.19h-1.37l-1.48,8.4h1.27l1-5.46,0.9,5.46h1.3l1.48-8.4h-1.27Z" transform="translate(-156.52 -352.63)"/></svg>