<svg xmlns="http://www.w3.org/2000/svg" viewBox="0 0 62.84 8.93"><defs><style>.a{fill:#0d1b35;}</style></defs><title>waldron-logo</title><path class="a" d="M0,.22H2L3.4,5.66h0L5.2.22H6.94L8.7,5.81h0L10.15.22H12L9.56,8.71H7.9L6,2.83H6L4.13,8.71H2.52Z"/><path class="a" d="M15.38.22h1.55l3.7,8.5H18.52l-.73-1.8h-3.3l-.71,1.8H11.71Zm.72,2.47-1,2.64h2.08Z"/><path class="a" d="M21.55.22h1.87V7h3.47V8.71H21.55Z"/><path class="a" d="M27.92.22h2.81a8,8,0,0,1,1.94.23,4.43,4.43,0,0,1,1.6.74,3.62,3.62,0,0,1,1.09,1.33,4.44,4.44,0,0,1,.4,2,4,4,0,0,1-.39,1.82,3.89,3.89,0,0,1-1,1.32,4.63,4.63,0,0,1-1.52.81A5.91,5.91,0,0,1,31,8.71H27.92ZM29.8,7h1A5.19,5.19,0,0,0,32,6.85a2.57,2.57,0,0,0,1-.44,2.1,2.1,0,0,0,.64-.8,2.86,2.86,0,0,0,.23-1.22,2.39,2.39,0,0,0-.23-1.09A2.17,2.17,0,0,0,33,2.54,2.76,2.76,0,0,0,32,2.09a4.15,4.15,0,0,0-1.12-.15H29.8Z"/><path class="a" d="M37,.22h3.29a5.8,5.8,0,0,1,1.23.13,2.94,2.94,0,0,1,1,.42,2.09,2.09,0,0,1,.7.79,2.68,2.68,0,0,1,.26,1.24,2.49,2.49,0,0,1-.47,1.53,2.11,2.11,0,0,1-1.37.8l2.16,3.59H41.6l-1.78-3.4H38.9v3.4H37ZM38.9,3.73H40l.53,0a1.65,1.65,0,0,0,.51-.11.87.87,0,0,0,.38-.28.86.86,0,0,0,.15-.54.9.9,0,0,0-.13-.52A.89.89,0,0,0,41.11,2a1.52,1.52,0,0,0-.47-.14,3.74,3.74,0,0,0-.52,0H38.9Z"/><path class="a" d="M44.35,4.46a4.81,4.81,0,0,1,.34-1.85,4,4,0,0,1,1-1.41A4.22,4.22,0,0,1,47.1.31a5.57,5.57,0,0,1,3.67,0,4.23,4.23,0,0,1,1.45.89,4,4,0,0,1,1,1.41,4.81,4.81,0,0,1,.34,1.85,4.81,4.81,0,0,1-.34,1.85,4,4,0,0,1-1,1.41,4.2,4.2,0,0,1-1.45.89,5.57,5.57,0,0,1-3.67,0,4.19,4.19,0,0,1-1.45-.89,4,4,0,0,1-1-1.41A4.81,4.81,0,0,1,44.35,4.46Zm1.94,0a3.11,3.11,0,0,0,.19,1.1,2.51,2.51,0,0,0,.53.86,2.43,2.43,0,0,0,.83.57A3,3,0,0,0,50,7a2.43,2.43,0,0,0,.83-.57,2.53,2.53,0,0,0,.53-.86,3.11,3.11,0,0,0,.19-1.1,3.13,3.13,0,0,0-.19-1.09,2.52,2.52,0,0,0-.53-.87A2.45,2.45,0,0,0,50,1.93a3,3,0,0,0-2.17,0A2.44,2.44,0,0,0,47,2.5a2.5,2.5,0,0,0-.53.87A3.13,3.13,0,0,0,46.3,4.46Z"/><path class="a" d="M54.79.22h2.54l3.61,5.9h0V.22h1.87v8.5H60.4l-3.71-6h0v6H54.79Z"/></svg>