<svg id="icon-webdevelopment" xmlns="http://www.w3.org/2000/svg" viewBox="0 0 342.86 242.86"><defs><style>.cls-1{fill:#ededed;}.cls-2{fill:#ddd;}.cls-3{fill:red;}.cls-4{fill:#c9c9c9;}.cls-5{fill:#ffe200;}.cls-6{fill:#15e800;}.cls-7{fill:#21cbff;}.cls-8{fill:#fff;}.cls-9{fill:#2eec18;}</style></defs><title>icons-webdevelopment</title><path id="window" d="M4130.71,3634.94v195.9a8,8,0,0,0,8,8h326.86a8,8,0,0,0,8-8v-195.9H4130.71Z" transform="translate(-4130.71 -3595.97)"/><g id="status"><path class="cls-1" d="M4473.57,3604a8,8,0,0,0-8-8H4138.71a8,8,0,0,0-8,8v11.48h342.86V3604Z" transform="translate(-4130.71 -3595.97)"/><rect class="cls-2" y="19.48" width="342.86" height="19.48"/></g><g id="close"><circle class="cls-3" cx="30.64" cy="19.48" r="9.74"/><path class="cls-4" d="M4161.34,3625.69a10.24,10.24,0,1,1,10.24-10.24A10.25,10.25,0,0,1,4161.34,3625.69Zm0-19.48a9.24,9.24,0,1,0,9.24,9.24A9.25,9.25,0,0,0,4161.34,3606.21Z" transform="translate(-4130.71 -3595.97)"/></g><g id="minimize"><circle class="cls-5" cx="64.52" cy="19.48" r="9.74"/><path class="cls-4" d="M4195.23,3625.69a10.24,10.24,0,1,1,10.24-10.24A10.25,10.25,0,0,1,4195.23,3625.69Zm0-19.48a9.24,9.24,0,1,0,9.24,9.24A9.25,9.25,0,0,0,4195.23,3606.21Z" transform="translate(-4130.71 -3595.97)"/></g><g id="expand"><circle class="cls-6" cx="98.4" cy="19.48" r="9.74"/><path class="cls-4" d="M4229.11,3625.69a10.24,10.24,0,1,1,10.24-10.24A10.25,10.25,0,0,1,4229.11,3625.69Zm0-19.48a9.24,9.24,0,1,0,9.24,9.24A9.25,9.25,0,0,0,4229.11,3606.21Z" transform="translate(-4130.71 -3595.97)"/></g><g id="user"><path class="cls-7" d="M4163,3664.93a0.87,0.87,0,0,1,.34-0.46,1.23,1.23,0,0,1,.63-0.13,0.79,0.79,0,0,1,.63.22,1.53,1.53,0,0,1,.18.9c0,0.8,0,1.54,0,2.23s0,1,0,.9a1.13,1.13,0,0,1-.2.78,1,1,0,0,1-.7.2,1.15,1.15,0,0,1-1-1.15l-0.13-.53a2.5,2.5,0,0,0-1.11-1.5,3.66,3.66,0,0,0-2.06-.58,4.27,4.27,0,0,0-3.47,1.58,7.48,7.48,0,0,0,0,8.47,4.34,4.34,0,0,0,3.5,1.58,5.43,5.43,0,0,0,1.44-.2,6.31,6.31,0,0,0,1.44-.6,8.1,8.1,0,0,0,.9-0.58,1.82,1.82,0,0,1,.82-0.41,0.89,0.89,0,0,1,.64.25,0.82,0.82,0,0,1,.26.62,1.07,1.07,0,0,1-.29.7,4.89,4.89,0,0,1-1.07.83,8.06,8.06,0,0,1-2.06,1,7.42,7.42,0,0,1-2.19.32,6.48,6.48,0,0,1-5-2.13,8.51,8.51,0,0,1,0-10.91,6.5,6.5,0,0,1,5-2.17,7.18,7.18,0,0,1,1.64.2A11,11,0,0,1,4163,3664.93Z" transform="translate(-4130.71 -3595.97)"/><path class="cls-7" d="M4176.91,3677.45a7.33,7.33,0,0,1-2.18,1.38,6.42,6.42,0,0,1-2.42.48,4.2,4.2,0,0,1-2.94-1,3.4,3.4,0,0,1-1.12-2.64,3.47,3.47,0,0,1,1.48-3,7.08,7.08,0,0,1,4.17-1.06,11.24,11.24,0,0,1,1.43.09,11.86,11.86,0,0,1,1.48.29v-0.08a2.4,2.4,0,0,0-2.76-2.75,5.37,5.37,0,0,0-2.12.51,5.18,5.18,0,0,1-1.55.51,0.73,0.73,0,0,1-.59-0.29,1.14,1.14,0,0,1-.23-0.74q0-.72,1.35-1.22a10.07,10.07,0,0,1,3.45-.5,4.42,4.42,0,0,1,3.25,1.09,4.36,4.36,0,0,1,1.1,3.23v5.53h0.6a2.46,2.46,0,0,1,1.16.18,0.71,0.71,0,0,1,.29.66,0.84,0.84,0,0,1-.24.66,1.06,1.06,0,0,1-.73.22h-1.92a0.79,0.79,0,0,1-.56-0.21,1.07,1.07,0,0,1-.29-0.6Zm-0.1-3.84a8.82,8.82,0,0,0-1.3-.32,7.68,7.68,0,0,0-1.25-.1,5.88,5.88,0,0,0-3,.63,1.92,1.92,0,0,0-1.09,1.71,1.67,1.67,0,0,0,.68,1.37,2.7,2.7,0,0,0,1.73.54,5.4,5.4,0,0,0,2.88-.81,2.2,2.2,0,0,0,1.32-1.69v-1.32Z" transform="translate(-4130.71 -3595.97)"/><path class="cls-7" d="M4187.91,3677.28H4192a1,1,0,0,1,.7.2,0.82,0.82,0,0,1,.23.64,0.89,0.89,0,0,1-.21.69,1.21,1.21,0,0,1-.79.19h-8a1,1,0,0,1-.72-0.22,0.84,0.84,0,0,1-.24-0.66,0.78,0.78,0,0,1,.25-0.63,1.2,1.2,0,0,1,.78-0.21h2.13v-7.84h-0.83a3.45,3.45,0,0,1-1.48-.19,0.75,0.75,0,0,1-.29-0.68,0.81,0.81,0,0,1,.24-0.64,1.06,1.06,0,0,1,.73-0.21h2.78a0.82,0.82,0,0,1,.5.13,0.44,0.44,0,0,1,.17.37v2.08a8.51,8.51,0,0,1,2.42-2.16,5.44,5.44,0,0,1,2.71-.71,3.18,3.18,0,0,1,1.76.44,1.31,1.31,0,0,1,.67,1.13,1.12,1.12,0,0,1-.34.8,1,1,0,0,1-.74.35,2.4,2.4,0,0,1-.95-0.37,2.5,2.5,0,0,0-1.19-.37,3.74,3.74,0,0,0-2,.68,11.65,11.65,0,0,0-2.34,2.15v5.06Z" transform="translate(-4130.71 -3595.97)"/><path class="cls-7" d="M4203.29,3664.78h-2.08a3.47,3.47,0,0,1-1.48-.19,0.75,0.75,0,0,1-.3-0.69,0.84,0.84,0,0,1,.25-0.66,1.07,1.07,0,0,1,.73-0.22h4a0.85,0.85,0,0,1,.51.13,0.43,0.43,0,0,1,.18.37v13.76H4209a1,1,0,0,1,.68.2,0.84,0.84,0,0,1,.21.64,0.91,0.91,0,0,1-.21.69,1.18,1.18,0,0,1-.78.19h-9a1.07,1.07,0,0,1-.73-0.22,0.83,0.83,0,0,1-.25-0.66,0.77,0.77,0,0,1,.26-0.63,1.2,1.2,0,0,1,.77-0.21h3.38v-12.5Z" transform="translate(-4130.71 -3595.97)"/><path class="cls-8" d="M4221.39,3667.62v-0.29a5,5,0,0,0-.56-2.6,1.77,1.77,0,0,0-1.59-.9,2.66,2.66,0,0,0-2.4,1.87,12.93,12.93,0,0,0-.86,5.26,13.22,13.22,0,0,0,1,5.82,3.17,3.17,0,0,0,3,1.95,4.34,4.34,0,0,0,1.28-.23,4.33,4.33,0,0,1,.94-0.23,0.5,0.5,0,0,1,.39.18,0.64,0.64,0,0,1,.16.45,1.19,1.19,0,0,1-.83,1,4.64,4.64,0,0,1-2.06.41,4.52,4.52,0,0,1-4.08-2.34,13,13,0,0,1-1.43-6.73,13.53,13.53,0,0,1,1.32-6.59,4.09,4.09,0,0,1,3.71-2.33,3.09,3.09,0,0,1,2.81,1.4,8.6,8.6,0,0,1,.89,4.47v5a3.62,3.62,0,0,1,.36.53,0.77,0.77,0,0,1,.09.34,1,1,0,0,1-.3.71,1,1,0,0,1-.7.31,0.82,0.82,0,0,1-.42-0.13,2.51,2.51,0,0,1-.51-0.45,4.55,4.55,0,0,1-1,.33,4.29,4.29,0,0,1-.91.1,2.52,2.52,0,0,1-2-.95,3.62,3.62,0,0,1-.8-2.42,3.8,3.8,0,0,1,1.1-2.87,4.12,4.12,0,0,1,3-1.06h0.43Zm0,5.46V3669l-0.2,0h-0.28a2.39,2.39,0,0,0-1.78.66,2.44,2.44,0,0,0-.65,1.79,2.06,2.06,0,0,0,.45,1.42,1.59,1.59,0,0,0,1.25.5,2.26,2.26,0,0,0,.51-0.07A6,6,0,0,0,4221.39,3673.08Z" transform="translate(-4130.71 -3595.97)"/><path class="cls-9" d="M4231.19,3677.28H4232a1.91,1.91,0,0,1,1,.2,0.72,0.72,0,0,1,.29.65,0.8,0.8,0,0,1-.26.69,2.14,2.14,0,0,1-1.12.19h-3.22a0.94,0.94,0,0,1-.68-0.22,0.88,0.88,0,0,1-.22-0.66,0.75,0.75,0,0,1,.26-0.66,1.88,1.88,0,0,1,1-.18h0.22v-11h-0.2a1.86,1.86,0,0,1-1-.2,0.79,0.79,0,0,1-.27-0.68,0.88,0.88,0,0,1,.22-0.67,1,1,0,0,1,.7-0.21h3.08a2.51,2.51,0,0,1,1.24.19,0.79,0.79,0,0,1,.26.69,0.73,0.73,0,0,1-.33.68,2.71,2.71,0,0,1-1.25.2h-0.55v4.25H4237v-4.25h-0.83a1.8,1.8,0,0,1-1-.21,0.76,0.76,0,0,1-.3-0.67,0.78,0.78,0,0,1,.28-0.69,2.91,2.91,0,0,1,1.35-.19h3a0.92,0.92,0,0,1,.67.22,0.88,0.88,0,0,1,.23.66,0.81,0.81,0,0,1-.26.68,1.53,1.53,0,0,1-.91.2h-0.29v11h0.2a1.86,1.86,0,0,1,1,.19,0.74,0.74,0,0,1,.27.65,0.8,0.8,0,0,1-.26.69,2.31,2.31,0,0,1-1.18.19h-2.53a2.57,2.57,0,0,1-1.26-.19,0.79,0.79,0,0,1-.27-0.69,0.69,0.69,0,0,1,.32-0.66,2.69,2.69,0,0,1,1.21-.18h0.6v-5.08h-5.85v5.08Z" transform="translate(-4130.71 -3595.97)"/><path class="cls-9" d="M4246.2,3679h-2.48a0.94,0.94,0,0,1-.68-0.22,0.88,0.88,0,0,1-.23-0.66,0.75,0.75,0,0,1,.26-0.66,1.87,1.87,0,0,1,1-.18h0.22v-11h-0.2a1.86,1.86,0,0,1-1-.2,0.78,0.78,0,0,1-.28-0.68,0.88,0.88,0,0,1,.23-0.67,1,1,0,0,1,.7-0.21h5.15a6.28,6.28,0,0,1,4.85,2,7.5,7.5,0,0,1,1.81,5.29,8.57,8.57,0,0,1-.52,3,7.19,7.19,0,0,1-1.51,2.44,5.37,5.37,0,0,1-2.23,1.38,11,11,0,0,1-3.37.43l-0.82,0Zm0-1.72,0.77,0.05,0.75,0a6.17,6.17,0,0,0,4.4-1.34,5.65,5.65,0,0,0,1.4-4.24,5.59,5.59,0,0,0-1.4-4.23,6.39,6.39,0,0,0-4.49-1.33h-0.87l-0.55,0v11Z" transform="translate(-4130.71 -3595.97)"/><path class="cls-9" d="M4261.2,3679h-2.48a0.94,0.94,0,0,1-.68-0.22,0.88,0.88,0,0,1-.22-0.66,0.75,0.75,0,0,1,.26-0.66,1.88,1.88,0,0,1,1-.18h0.22v-11h-0.2a1.86,1.86,0,0,1-1-.2,0.79,0.79,0,0,1-.27-0.68,0.88,0.88,0,0,1,.22-0.67,1,1,0,0,1,.7-0.21h5.15a6.27,6.27,0,0,1,4.85,2,7.5,7.5,0,0,1,1.81,5.29,8.57,8.57,0,0,1-.52,3,7.19,7.19,0,0,1-1.51,2.44,5.37,5.37,0,0,1-2.23,1.38,11,11,0,0,1-3.37.43l-0.82,0Zm0-1.72,0.78,0.05,0.75,0a6.17,6.17,0,0,0,4.4-1.34,5.65,5.65,0,0,0,1.4-4.24,5.59,5.59,0,0,0-1.4-4.23,6.39,6.39,0,0,0-4.49-1.33h-0.87l-0.55,0v11Z" transform="translate(-4130.71 -3595.97)"/><path class="cls-9" d="M4279.23,3670.25a2,2,0,0,1,.66-1.56,2.46,2.46,0,0,1,1.73-.61,2.5,2.5,0,0,1,1.74.6,2.2,2.2,0,0,1,0,3.15,2.82,2.82,0,0,1-3.47,0A2,2,0,0,1,4279.23,3670.25Zm0,6.75a2,2,0,0,1,.66-1.56,2.45,2.45,0,0,1,1.73-.61,2.49,2.49,0,0,1,1.74.6,2.2,2.2,0,0,1,0,3.15,2.82,2.82,0,0,1-3.47,0A2,2,0,0,1,4279.23,3677Z" transform="translate(-4130.71 -3595.97)"/></g><g id="git"><path class="cls-8" d="M4305.59,3678.35a11.69,11.69,0,0,1-.17,2.42,3.22,3.22,0,0,1-.59,1.25,4.24,4.24,0,0,1-1.92,1.37,8.15,8.15,0,0,1-2.91.47,5.63,5.63,0,0,1-2-.27,0.9,0.9,0,0,1-.64-0.85,0.88,0.88,0,0,1,.31-0.67,1.05,1.05,0,0,1,.74-0.29,8.56,8.56,0,0,1,1,.09,8.45,8.45,0,0,0,1,.09,3.34,3.34,0,0,0,2.56-.83,4.2,4.2,0,0,0,.76-2.84v-1.48a4.71,4.71,0,0,1-1.65,1.27,5.48,5.48,0,0,1-5.85-1.12,5.69,5.69,0,0,1,0-7.74,5.16,5.16,0,0,1,3.81-1.54,5.06,5.06,0,0,1,1.84.35,7.36,7.36,0,0,1,1.81,1.06v-0.88a0.44,0.44,0,0,1,.16-0.38,0.88,0.88,0,0,1,.52-0.12h1.84a1.08,1.08,0,0,1,.73.21,0.8,0.8,0,0,1,.24.64,0.75,0.75,0,0,1-.3.68,2.29,2.29,0,0,1-1.14.2h-0.22v8.9Zm-5.31-8.83a3.59,3.59,0,0,0-2.61,1,3.73,3.73,0,0,0,0,5.11,3.92,3.92,0,0,0,5.22,0,3.69,3.69,0,0,0,0-5.1A3.57,3.57,0,0,0,4300.28,3669.53Z" transform="translate(-4130.71 -3595.97)"/><path class="cls-8" d="M4316.76,3677.28h3.92a1,1,0,0,1,.7.2,0.82,0.82,0,0,1,.23.64,0.89,0.89,0,0,1-.21.69,1.21,1.21,0,0,1-.79.19h-9.46a1.06,1.06,0,0,1-.73-0.22,0.84,0.84,0,0,1-.24-0.66,0.77,0.77,0,0,1,.26-0.63,1.2,1.2,0,0,1,.77-0.21h3.72v-7.84h-2.39a1.15,1.15,0,0,1-.77-0.22,0.8,0.8,0,0,1-.26-0.65,0.79,0.79,0,0,1,.24-0.64,1.09,1.09,0,0,1,.73-0.21h3.58a0.88,0.88,0,0,1,.52.13,0.43,0.43,0,0,1,.19.37v9.06Zm-2.26-13.07a3.53,3.53,0,0,1,.24-1.66,1.19,1.19,0,0,1,1-.34,1.31,1.31,0,0,1,1,.29,2.4,2.4,0,0,1,.24,1.36,2.28,2.28,0,0,1-.23,1.3,1.43,1.43,0,0,1-1,.25,1.54,1.54,0,0,1-1-.23A1.39,1.39,0,0,1,4314.5,3664.21Z" transform="translate(-4130.71 -3595.97)"/><path class="cls-8" d="M4334,3668.4a1.47,1.47,0,0,1,.87.21,0.77,0.77,0,0,1,.27.66,0.78,0.78,0,0,1-.26.64,1.18,1.18,0,0,1-.77.21h-4.94v4.08a4.53,4.53,0,0,0,.52,2.64,2.18,2.18,0,0,0,1.78.63,7.13,7.13,0,0,0,2.66-.65,7.82,7.82,0,0,1,1.92-.65,0.78,0.78,0,0,1,.58.24,0.83,0.83,0,0,1,.24.6,1,1,0,0,1-.3.7,3.05,3.05,0,0,1-1,.58,15.13,15.13,0,0,1-2.15.7,8.1,8.1,0,0,1-1.8.22,5.59,5.59,0,0,1-2.4-.46,3,3,0,0,1-1.45-1.36,3.12,3.12,0,0,1-.35-1,11.24,11.24,0,0,1-.1-1.81v-4.46h-2.08a1.12,1.12,0,0,1-.74-0.2,0.82,0.82,0,0,1-.23-0.65,0.72,0.72,0,0,1,.32-0.68,3.16,3.16,0,0,1,1.35-.18h1.38v-3.15a1.13,1.13,0,0,1,.22-0.78,0.9,0.9,0,0,1,.7-0.25,0.83,0.83,0,0,1,.74.31,2.91,2.91,0,0,1,.21,1.39v2.48H4334Z" transform="translate(-4130.71 -3595.97)"/><path class="cls-8" d="M4355.31,3678.12v-2.17a1.16,1.16,0,0,1,.2-0.77,0.82,0.82,0,0,1,.65-0.23,0.91,0.91,0,0,1,.79.68,3.65,3.65,0,0,0,.36.62,3.49,3.49,0,0,0,1.51,1.06,5.93,5.93,0,0,0,2.21.4,3.66,3.66,0,0,0,2.07-.52,1.6,1.6,0,0,0,.78-1.38,1.31,1.31,0,0,0-.63-1.23,4.58,4.58,0,0,0-2.16-.37h-0.67a6.88,6.88,0,0,1-3.8-.87,2.83,2.83,0,0,1-1.31-2.51,2.88,2.88,0,0,1,1.28-2.5,6.2,6.2,0,0,1,3.58-.89,7.36,7.36,0,0,1,1.92.26l1,0.26a1.32,1.32,0,0,0,.51-0.24,1.4,1.4,0,0,1,.75-0.24,0.69,0.69,0,0,1,.62.3,1.68,1.68,0,0,1,.2.92v1.43a1.7,1.7,0,0,1-.2.93,0.69,0.69,0,0,1-.62.29,1.43,1.43,0,0,1-.9-0.62,8.06,8.06,0,0,0-.62-0.65,4,4,0,0,0-1.38-.86,5.11,5.11,0,0,0-1.72-.26,3.1,3.1,0,0,0-1.85.51,1.53,1.53,0,0,0-.7,1.29,1.13,1.13,0,0,0,.72,1.1,9.56,9.56,0,0,0,3.1.38,6.85,6.85,0,0,1,3.71.89,2.9,2.9,0,0,1,1.17,2.54,3.15,3.15,0,0,1-1.29,2.64,5.61,5.61,0,0,1-3.49,1,10.48,10.48,0,0,1-1.55-.13q-0.85-.13-2.15-0.43a5.85,5.85,0,0,1-.73.42,1.29,1.29,0,0,1-.51.14,0.77,0.77,0,0,1-.65-0.3A1.41,1.41,0,0,1,4355.31,3678.12Z" transform="translate(-4130.71 -3595.97)"/><path class="cls-8" d="M4379,3668.4a1.45,1.45,0,0,1,.87.21,0.77,0.77,0,0,1,.28.66,0.79,0.79,0,0,1-.26.64,1.18,1.18,0,0,1-.77.21h-4.94v4.08a4.54,4.54,0,0,0,.52,2.64,2.18,2.18,0,0,0,1.78.63,7.12,7.12,0,0,0,2.66-.65,7.82,7.82,0,0,1,1.92-.65,0.78,0.78,0,0,1,.58.24,0.82,0.82,0,0,1,.24.6,1,1,0,0,1-.3.7,3,3,0,0,1-1,.58,15.05,15.05,0,0,1-2.15.7,8.07,8.07,0,0,1-1.8.22,5.6,5.6,0,0,1-2.4-.46,3,3,0,0,1-1.45-1.36,3.12,3.12,0,0,1-.35-1,11.47,11.47,0,0,1-.1-1.81v-4.46h-2.07a1.12,1.12,0,0,1-.74-0.2,0.82,0.82,0,0,1-.23-0.65,0.72,0.72,0,0,1,.32-0.68,3.18,3.18,0,0,1,1.36-.18h1.38v-3.15a1.13,1.13,0,0,1,.23-0.78,0.9,0.9,0,0,1,.7-0.25,0.84,0.84,0,0,1,.75.31,2.94,2.94,0,0,1,.21,1.39v2.48H4379Z" transform="translate(-4130.71 -3595.97)"/><path class="cls-8" d="M4393.44,3677.45a7.33,7.33,0,0,1-2.18,1.38,6.42,6.42,0,0,1-2.42.48,4.2,4.2,0,0,1-2.94-1,3.4,3.4,0,0,1-1.12-2.64,3.47,3.47,0,0,1,1.48-3,7.08,7.08,0,0,1,4.17-1.06,11.24,11.24,0,0,1,1.43.09,11.86,11.86,0,0,1,1.48.29v-0.08a2.4,2.4,0,0,0-2.76-2.75,5.37,5.37,0,0,0-2.12.51,5.18,5.18,0,0,1-1.55.51,0.73,0.73,0,0,1-.59-0.29,1.14,1.14,0,0,1-.23-0.74q0-.72,1.35-1.22a10.07,10.07,0,0,1,3.45-.5,4.42,4.42,0,0,1,3.25,1.09,4.36,4.36,0,0,1,1.1,3.23v5.53h0.6a2.46,2.46,0,0,1,1.16.18,0.71,0.71,0,0,1,.29.66,0.84,0.84,0,0,1-.24.66,1.06,1.06,0,0,1-.73.22h-1.92a0.79,0.79,0,0,1-.56-0.21,1.07,1.07,0,0,1-.29-0.6Zm-0.1-3.84a8.82,8.82,0,0,0-1.3-.32,7.68,7.68,0,0,0-1.25-.1,5.88,5.88,0,0,0-3,.63,1.92,1.92,0,0,0-1.09,1.71,1.67,1.67,0,0,0,.68,1.37,2.7,2.7,0,0,0,1.73.54,5.4,5.4,0,0,0,2.88-.81,2.2,2.2,0,0,0,1.32-1.69v-1.32Z" transform="translate(-4130.71 -3595.97)"/><path class="cls-8" d="M4409,3668.4a1.47,1.47,0,0,1,.87.21,0.77,0.77,0,0,1,.27.66,0.78,0.78,0,0,1-.26.64,1.18,1.18,0,0,1-.77.21h-4.94v4.08a4.53,4.53,0,0,0,.52,2.64,2.18,2.18,0,0,0,1.78.63,7.13,7.13,0,0,0,2.66-.65,7.82,7.82,0,0,1,1.92-.65,0.78,0.78,0,0,1,.58.24,0.83,0.83,0,0,1,.24.6,1,1,0,0,1-.3.7,3.05,3.05,0,0,1-1,.58,15.13,15.13,0,0,1-2.15.7,8.1,8.1,0,0,1-1.8.22,5.59,5.59,0,0,1-2.4-.46,3,3,0,0,1-1.45-1.36,3.12,3.12,0,0,1-.35-1,11.24,11.24,0,0,1-.1-1.81v-4.46h-2.08a1.12,1.12,0,0,1-.74-0.2,0.82,0.82,0,0,1-.23-0.65,0.72,0.72,0,0,1,.32-0.68,3.16,3.16,0,0,1,1.35-.18h1.38v-3.15a1.13,1.13,0,0,1,.22-0.78,0.9,0.9,0,0,1,.7-0.25,0.83,0.83,0,0,1,.74.31,2.91,2.91,0,0,1,.21,1.39v2.48H4409Z" transform="translate(-4130.71 -3595.97)"/><path class="cls-8" d="M4417.6,3674.5a3.26,3.26,0,0,0,.65,2.25,2.66,2.66,0,0,0,2.05.71,3.3,3.3,0,0,0,2.28-.84,2.72,2.72,0,0,0,.95-2.12v-5h-1.67a1,1,0,0,1-.69-0.2,0.82,0.82,0,0,1-.21-0.62,0.89,0.89,0,0,1,.23-0.68,1.07,1.07,0,0,1,.74-0.22h2.6a0.88,0.88,0,0,1,.65.2,1.63,1.63,0,0,1,.19,1v8.38h0.56a1.47,1.47,0,0,1,.86.2,0.76,0.76,0,0,1,.26.65,0.83,0.83,0,0,1-.25.66,1.07,1.07,0,0,1-.73.22h-1.86a0.85,0.85,0,0,1-.51-0.13,0.43,0.43,0,0,1-.18-0.37v-0.83a9,9,0,0,1-2,1.24,4.7,4.7,0,0,1-1.77.34,4,4,0,0,1-3-1.07,4.56,4.56,0,0,1-1-3.23v-5.5h-0.26a2.32,2.32,0,0,1-1.14-.19,0.74,0.74,0,0,1-.3-0.68,0.81,0.81,0,0,1,.24-0.64,1.08,1.08,0,0,1,.74-0.21h1.84a0.81,0.81,0,0,1,.59.17,1.17,1.17,0,0,1,.16.76v5.85Z" transform="translate(-4130.71 -3595.97)"/><path class="cls-8" d="M4430.32,3678.12v-2.17a1.18,1.18,0,0,1,.2-0.77,0.82,0.82,0,0,1,.65-0.23,0.91,0.91,0,0,1,.79.68,3.67,3.67,0,0,0,.35.62,3.5,3.5,0,0,0,1.51,1.06,6,6,0,0,0,2.21.4,3.67,3.67,0,0,0,2.07-.52,1.6,1.6,0,0,0,.78-1.38,1.31,1.31,0,0,0-.63-1.23,4.58,4.58,0,0,0-2.15-.37h-0.67a6.87,6.87,0,0,1-3.79-.87,2.83,2.83,0,0,1-1.31-2.51,2.88,2.88,0,0,1,1.28-2.5,6.19,6.19,0,0,1,3.58-.89,7.39,7.39,0,0,1,1.92.26l1,0.26a1.33,1.33,0,0,0,.51-0.24,1.39,1.39,0,0,1,.74-0.24,0.69,0.69,0,0,1,.62.3,1.68,1.68,0,0,1,.2.92v1.43a1.7,1.7,0,0,1-.2.93,0.7,0.7,0,0,1-.62.29,1.43,1.43,0,0,1-.9-0.62,8.42,8.42,0,0,0-.62-0.65,4.06,4.06,0,0,0-1.38-.86,5.11,5.11,0,0,0-1.72-.26,3.09,3.09,0,0,0-1.85.51,1.53,1.53,0,0,0-.7,1.29,1.13,1.13,0,0,0,.72,1.1,9.56,9.56,0,0,0,3.1.38,6.85,6.85,0,0,1,3.71.89,2.9,2.9,0,0,1,1.17,2.54,3.15,3.15,0,0,1-1.29,2.64,5.61,5.61,0,0,1-3.49,1,10.46,10.46,0,0,1-1.55-.13q-0.86-.13-2.15-0.43a5.85,5.85,0,0,1-.73.42,1.3,1.3,0,0,1-.51.14,0.77,0.77,0,0,1-.65-0.3A1.41,1.41,0,0,1,4430.32,3678.12Z" transform="translate(-4130.71 -3595.97)"/></g><path id="cursor" class="cls-8" d="M4448.46,3660.77h2v21.4h-2v-21.4Z" transform="translate(-4130.71 -3595.97)"/></svg>