<svg id="icon-graphicdesign" xmlns="http://www.w3.org/2000/svg" viewBox="0 0 256.72 256.71"><defs><style>.cls-1{fill:#fff1d0;}.cls-2{fill:#007ef3;}.cls-3{fill:#d37db0;}.cls-4{fill:#666;}.cls-5{fill:#4d4d4d;}.cls-6{fill:#f2ae03;}.cls-7{fill:#ffb92e;}.cls-8{fill:#dd9505;}.cls-9{fill:#cecece;}.cls-10{fill:#e5e5e5;}.cls-11{fill:#eaeaea;}.cls-12{fill:#fff;}</style></defs><title>icons-graphicdesign</title><circle id="circle-background" class="cls-1" cx="128.26" cy="128.36" r="116.28"/><path id="circle-rim" class="cls-2" d="M4731,3839.6a118.28,118.28,0,1,1,118.28-118.28A118.41,118.41,0,0,1,4731,3839.6Zm0-232.56a114.28,114.28,0,1,0,114.28,114.28A114.41,114.41,0,0,0,4731,3607Z" transform="translate(-4602.64 -3592.97)"/><g id="pencil"><path class="cls-3" d="M4799.5,3687.87a2.91,2.91,0,0,0,0-4.12l-29.67-29.67a2.91,2.91,0,0,0-4.12,0l-20.61,20.61,33.79,33.79Z" transform="translate(-4602.64 -3592.97)"/><rect class="cls-4" x="4758.36" y="3670.17" width="2.33" height="47.79" transform="translate(-5820.7 854.49) rotate(-45)"/><rect class="cls-5" x="4760.01" y="3668.52" width="2.33" height="47.79" transform="translate(-5819.05 855.17) rotate(-45)"/><path d="M4663.92,3789.66a2.91,2.91,0,0,0,2.38.84l13.56-1.51a35.64,35.64,0,0,0-15.27-15.27l-1.51,13.56A2.91,2.91,0,0,0,4663.92,3789.66Z" transform="translate(-4602.64 -3592.97)"/><path class="cls-6" d="M4690.65,3762.93a35.49,35.49,0,0,1,6.51,8.94l69.26-69.26-15.36-15.36-69.23,69.23A35.5,35.5,0,0,1,4690.65,3762.93Z" transform="translate(-4602.64 -3592.97)"/><path class="cls-7" d="M4751.06,3687.25l-9.26-9.26-74.17,74.17a2.91,2.91,0,0,0-.33.4,35.51,35.51,0,0,1,14.53,3.92Z" transform="translate(-4602.64 -3592.97)"/><path class="cls-8" d="M4766.43,3702.61l-69.26,69.26a35.51,35.51,0,0,1,3.86,14.41,2.91,2.91,0,0,0,.4-0.33l74.17-74.17Z" transform="translate(-4602.64 -3592.97)"/><path class="cls-9" d="M4680.07,3789l19.61-2.18a2.91,2.91,0,0,0,1.33-.5,35.51,35.51,0,0,0-3.86-14.41Z" transform="translate(-4602.64 -3592.97)"/><path class="cls-10" d="M4690.65,3762.93a35.5,35.5,0,0,0-8.82-6.45l-17.23,17.23h0a35.64,35.64,0,0,1,15.27,15.27l0.21,0,17.09-17.09A35.49,35.49,0,0,0,4690.65,3762.93Z" transform="translate(-4602.64 -3592.97)"/><path class="cls-11" d="M4667.3,3752.57a2.91,2.91,0,0,0-.5,1.33l-2.2,19.82,17.23-17.23A35.51,35.51,0,0,0,4667.3,3752.57Z" transform="translate(-4602.64 -3592.97)"/></g><g id="anchor-bottom"><circle class="cls-12" cx="128.36" cy="244.64" r="10.08"/><path class="cls-2" d="M4731,3849.68a12.08,12.08,0,1,1,12.08-12.08A12.09,12.09,0,0,1,4731,3849.68Zm0-20.15a8.08,8.08,0,1,0,8.08,8.08A8.09,8.09,0,0,0,4731,3829.53Z" transform="translate(-4602.64 -3592.97)"/></g><g id="anchor-top"><rect class="cls-2" x="128.36" y="10.08" width="82.29" height="4"/><circle class="cls-2" cx="210.65" cy="12.08" r="6.13"/><circle class="cls-12" cx="128.36" cy="12.08" r="10.08"/><path class="cls-2" d="M4731,3617.12a12.08,12.08,0,1,1,12.08-12.08A12.09,12.09,0,0,1,4731,3617.12Zm0-20.15a8.08,8.08,0,1,0,8.08,8.08A8.09,8.09,0,0,0,4731,3597Z" transform="translate(-4602.64 -3592.97)"/></g><g id="anchor-left"><rect class="cls-2" x="10.08" y="128.36" width="4" height="82.29"/><circle class="cls-2" cx="12.08" cy="210.65" r="6.13"/><rect class="cls-2" x="10.03" y="46.07" width="4" height="82.29"/><circle class="cls-2" cx="12.03" cy="46.07" r="6.13"/><circle class="cls-12" cx="12.08" cy="128.36" r="10.08"/><path class="cls-2" d="M4614.71,3733.4a12.08,12.08,0,1,1,12.08-12.08A12.09,12.09,0,0,1,4614.71,3733.4Zm0-20.15a8.08,8.08,0,1,0,8.08,8.08A8.09,8.09,0,0,0,4614.71,3713.25Z" transform="translate(-4602.64 -3592.97)"/></g><g id="anchor-right"><rect class="cls-2" x="242.64" y="128.45" width="4" height="82.29"/><circle class="cls-2" cx="244.64" cy="210.74" r="6.13"/><circle class="cls-12" cx="244.64" cy="128.36" r="10.08"/><path class="cls-2" d="M4847.28,3733.4a12.08,12.08,0,1,1,12.08-12.08A12.09,12.09,0,0,1,4847.28,3733.4Zm0-20.15a8.08,8.08,0,1,0,8.08,8.08A8.09,8.09,0,0,0,4847.28,3713.25Z" transform="translate(-4602.64 -3592.97)"/></g></svg>