<svg id="icon-webdesign" xmlns="http://www.w3.org/2000/svg" viewBox="0 0 342.86 242.86"><defs><style>.cls-1{fill:#f7f7f7;}.cls-2{fill:#ededed;}.cls-3{fill:#ddd;}.cls-4{fill:red;}.cls-5{fill:#c9c9c9;}.cls-6{fill:#ffe200;}.cls-7{fill:#15e800;}.cls-8{fill:#2c41ff;}.cls-9{fill:#999;}.cls-10{fill:#ffc517;}</style></defs><title>icons-webdesign</title><path id="window" class="cls-1" d="M3742.36,3634.94v195.9a8,8,0,0,0,8,8h326.86a8,8,0,0,0,8-8v-195.9H3742.36Z" transform="translate(-3742.36 -3595.97)"/><g id="status"><path class="cls-2" d="M4085.22,3604a8,8,0,0,0-8-8H3750.36a8,8,0,0,0-8,8v11.48h342.86V3604Z" transform="translate(-3742.36 -3595.97)"/><rect class="cls-3" y="19.48" width="342.86" height="19.48"/></g><g id="close"><circle class="cls-4" cx="30.64" cy="19.48" r="9.74"/><path class="cls-5" d="M3773,3625.69a10.24,10.24,0,1,1,10.24-10.24A10.25,10.25,0,0,1,3773,3625.69Zm0-19.48a9.24,9.24,0,1,0,9.24,9.24A9.25,9.25,0,0,0,3773,3606.21Z" transform="translate(-3742.36 -3595.97)"/></g><g id="minimize"><circle class="cls-6" cx="64.52" cy="19.48" r="9.74"/><path class="cls-5" d="M3806.88,3625.69a10.24,10.24,0,1,1,10.24-10.24A10.25,10.25,0,0,1,3806.88,3625.69Zm0-19.48a9.24,9.24,0,1,0,9.24,9.24A9.25,9.25,0,0,0,3806.88,3606.21Z" transform="translate(-3742.36 -3595.97)"/></g><g id="expand"><circle class="cls-7" cx="98.4" cy="19.48" r="9.74"/><path class="cls-5" d="M3840.76,3625.69a10.24,10.24,0,1,1,10.24-10.24A10.25,10.25,0,0,1,3840.76,3625.69Zm0-19.48a9.24,9.24,0,1,0,9.24,9.24A9.25,9.25,0,0,0,3840.76,3606.21Z" transform="translate(-3742.36 -3595.97)"/></g><rect id="hero" class="cls-8" y="38.96" width="342.86" height="60.75"/><g id="copy"><rect class="cls-9" x="183.5" y="163.25" width="139" height="13.91"/><rect class="cls-9" x="183.5" y="117.27" width="139" height="36.99"/><rect class="cls-9" x="183.5" y="186.14" width="139" height="13.91"/><rect class="cls-9" x="183.5" y="209.04" width="139" height="13.91"/></g><g id="image"><rect class="cls-10" x="21.83" y="117.27" width="139" height="105.86"/><rect class="cls-1" x="3833.19" y="3678.82" width="1" height="174.72" transform="translate(-5227.63 938.28) rotate(-52.71)"/><rect class="cls-1" x="3746.33" y="3765.68" width="174.72" height="1" transform="translate(-5240.48 -502.94) rotate(-37.3)"/></g></svg>