<svg id="icon-contact" xmlns="http://www.w3.org/2000/svg" viewBox="0 0 239 400.64"><defs><style>.cls-1{fill:#fff;}.cls-2{fill:#f7f7f7;}.cls-3{fill:#ccc;}.cls-4{fill:#ef1818;}.cls-5{fill:#666;}.cls-6{fill:#00db00;}.cls-7{fill:#00e500;}</style></defs><title>icons-contact</title><g id="phone-background"><path id="phone-reg" class="cls-1" d="M5016.64,3530.29v44.65h202.77v-44.65H5016.64Zm0,400.64h202.77v-28.64H5016.64v28.64Z" transform="translate(-4998.52 -3530.29)"/><path id="phone-highlight" class="cls-2" d="M4998.52,3542.83v375.57a12.57,12.57,0,0,0,12.54,12.54h5.58v-28.64h-10.18V3574.94h10.18v-44.65h-5.58A12.57,12.57,0,0,0,4998.52,3542.83ZM5225,3530.29h-5.58v44.65h10.18v327.35h-10.18v28.64H5225a12.57,12.57,0,0,0,12.54-12.54V3542.83A12.57,12.57,0,0,0,5225,3530.29Z" transform="translate(-4998.52 -3530.29)"/></g><g id="home-btn"><rect class="cls-1" x="93.61" y="377.1" width="51.79" height="18.65" rx="9.33" ry="9.33"/><path id="home-outline" class="cls-3" d="M5134.59,3925.54h-33.14a8.83,8.83,0,1,1,0-17.65h33.14A8.83,8.83,0,1,1,5134.59,3925.54Zm-33.14-16.65a7.83,7.83,0,1,0,0,15.65h33.14a7.83,7.83,0,1,0,0-15.65h-33.14Z" transform="translate(-4998.52 -3530.29)"/></g><g id="screen-tag"><path class="cls-2" d="M5219.41,3720v182.29h10.18V3720h-10.18Zm-213,182.29h10.18V3720h-10.18v182.29Z" transform="translate(-4998.52 -3530.29)"/><rect class="cls-1" x="18.12" y="189.71" width="202.77" height="182.29"/></g><g id="end-call"><circle class="cls-4" cx="119.5" cy="278.53" r="27.11"/><path class="cls-1" d="M5127.44,3802.25c-1.68-.38-3.37-0.78-5.07-1.07a28,28,0,0,0-5.66-.28,27,27,0,0,0-5,.57,48.71,48.71,0,0,0-4.74,1.23,40.2,40.2,0,0,0-4.39,1.82,4.5,4.5,0,0,0-2.11,1.93,6.3,6.3,0,0,0-.61,2.13,8.55,8.55,0,0,0,.3,4.38,8.27,8.27,0,0,0,2.56,3.56,0.75,0.75,0,0,0,1,.07c0.53-.41,1-0.85,1.54-1.31,0.75-.7,1.47-1.42,2.2-2.13l2.1-2a0.84,0.84,0,0,0,.25-1.08c-0.07-.13-0.13-0.27-0.2-0.39-0.21-.34-0.46-0.67-0.64-1a0.61,0.61,0,0,1,.38-0.93c0.72-.07,1.44-0.11,2.15-0.13,1.17,0,2.33,0,3.5,0l2.52,0,3.38,0h2.46c1,0,2,0,3.06.06,0.81,0,1.12.11,0.8,1.1l0,0.06c-0.34.69-.69,1.37-1,2.06s-0.24.84,0.24,1.15c1.24,0.78,2.47,1.58,3.72,2.35s2.24,1.29,3.35,1.95a0.71,0.71,0,0,0,1.08-.19c0.31-.47.57-1,0.84-1.46a7.61,7.61,0,0,0,.86-2.94,11.13,11.13,0,0,0,0-2.36,5.5,5.5,0,0,0-1.06-3.2,5.23,5.23,0,0,0-1.84-1.59C5132,3803.93,5128,3802.38,5127.44,3802.25Z" transform="translate(-4998.52 -3530.29)"/><path class="cls-1" d="M5133.37,3804.52a5.23,5.23,0,0,1,1.84,1.59,5.5,5.5,0,0,1,1.06,3.2,11.13,11.13,0,0,1,0,2.36,7.61,7.61,0,0,1-.86,2.94c-0.27.49-.53,1-0.84,1.46a0.71,0.71,0,0,1-1.08.19c-1.11-.65-2.25-1.27-3.35-1.95s-2.48-1.56-3.72-2.35c-0.48-.3-0.49-0.6-0.24-1.15s0.67-1.38,1-2.06l0-.06c0.32-1,0-1.07-.8-1.1-1,0-2,0-3.06-.06h-2.46l-3.38,0-2.52,0c-1.17,0-2.33,0-3.5,0-0.72,0-1.44.06-2.15,0.13a0.61,0.61,0,0,0-.38.93c0.19,0.36.43,0.68,0.64,1,0.08,0.12.13,0.26,0.2,0.39a0.84,0.84,0,0,1-.25,1.08l-2.1,2c-0.73.71-1.46,1.44-2.2,2.13-0.49.46-1,.9-1.54,1.31a0.75,0.75,0,0,1-1-.07,8.27,8.27,0,0,1-2.56-3.56,8.55,8.55,0,0,1-.3-4.38,6.3,6.3,0,0,1,.61-2.13,4.5,4.5,0,0,1,2.11-1.93,40.2,40.2,0,0,1,4.39-1.82,48.71,48.71,0,0,1,4.74-1.23,27,27,0,0,1,5-.57,28,28,0,0,1,5.66.28A47,47,0,0,1,5133.37,3804.52Z" transform="translate(-4998.52 -3530.29)"/></g><g id="pinpoints"><circle class="cls-5" cx="113.62" cy="198.21" r="2"/><circle class="cls-3" cx="125.38" cy="198.21" r="2"/></g><g id="name-tag"><path class="cls-6" d="M5219.41,3574.94V3720h10.18V3574.94h-10.18Zm-213,145.06h10.18V3574.94h-10.18V3720Z" transform="translate(-4998.52 -3530.29)"/><rect class="cls-7" x="18.12" y="44.65" width="202.77" height="145.06"/></g><g id="timer"><path class="cls-1" d="M5110.07,3640.34a8.8,8.8,0,0,1-6.31,2.5c-6.1,0-8.83-4.2-8.86-8.62s2.86-8.81,8.86-8.81a8.59,8.59,0,0,1,6.14,2.54l-1.8,1.73a6.17,6.17,0,0,0-4.34-1.73,5.89,5.89,0,0,0-6.19,6.24c0,3.07,1.85,6.12,6.19,6.12a6.51,6.51,0,0,0,4.46-1.82Z" transform="translate(-4998.52 -3530.29)"/><path class="cls-1" d="M5121.56,3630.67h2.4v11.83h-2.35l-0.12-1.92a4.68,4.68,0,0,1-4.08,2.23c-3.46,0-6.07-2.21-6.07-6.24a5.8,5.8,0,0,1,6.12-6.17,4.57,4.57,0,0,1,4,2.14Zm-7.75,5.9a3.73,3.73,0,0,0,3.84,3.94c5.11,0,5.11-7.85,0-7.85A3.72,3.72,0,0,0,5113.81,3636.57Z" transform="translate(-4998.52 -3530.29)"/><path class="cls-1" d="M5129.63,3630.67l0.17,1.56a3.64,3.64,0,0,1,3.48-1.82,4.54,4.54,0,0,1,2.93,1l-1.13,2.16a3.24,3.24,0,0,0-5.28,2.52v6.41h-2.47v-11.83h2.3Z" transform="translate(-4998.52 -3530.29)"/><path class="cls-1" d="M5140.45,3625.72v16.78H5138v-16.78h2.47Z" transform="translate(-4998.52 -3530.29)"/><path class="cls-1" d="M5082.72,3661.43c0-9.74,14.07-9.72,14.07,0v2.93c0,9.72-14.07,9.75-14.07,0v-2.93Zm2.69,2.93c0,6.38,8.69,6.38,8.69,0v-2.93c0-6.29-8.69-6.36-8.69,0v2.93Z" transform="translate(-4998.52 -3530.29)"/><path class="cls-1" d="M5099.52,3661.43c0-9.74,14.06-9.72,14.06,0v2.93c0,9.72-14.06,9.75-14.06,0v-2.93Zm2.69,2.93c0,6.38,8.69,6.38,8.69,0v-2.93c0-6.29-8.69-6.36-8.69,0v2.93Z" transform="translate(-4998.52 -3530.29)"/><path class="cls-1" d="M5119.54,3663a1.51,1.51,0,0,1-3,0A1.51,1.51,0,0,1,5119.54,3663Zm0,7a1.51,1.51,0,0,1-3,0A1.51,1.51,0,0,1,5119.54,3670Z" transform="translate(-4998.52 -3530.29)"/><path class="cls-1" d="M5122.46,3661.43c0-9.74,14.06-9.72,14.06,0v2.93c0,9.72-14.06,9.75-14.06,0v-2.93Zm2.69,2.93c0,6.38,8.69,6.38,8.69,0v-2.93c0-6.29-8.69-6.36-8.69,0v2.93Z" transform="translate(-4998.52 -3530.29)"/><path class="cls-1" d="M5139.26,3661.43c0-9.74,14.06-9.72,14.06,0v2.93c0,9.72-14.06,9.75-14.06,0v-2.93Zm2.69,2.93c0,6.38,8.69,6.38,8.69,0v-2.93c0-6.29-8.69-6.36-8.69,0v2.93Z" transform="translate(-4998.52 -3530.29)"/></g><path id="screen-border" d="M5230.09,3902.79H5006V3574.44h224.13v328.35Zm-223.13-1h222.13V3575.44H5007v326.35Z" transform="translate(-4998.52 -3530.29)"/><path id="brand" class="cls-3" d="M5089.16,3554.82a3.18,3.18,0,0,0-3.48,3.39V3565a3.17,3.17,0,0,0,3.48,3.39,3.14,3.14,0,0,0,3.37-3.39v-1.52h-2.27v1.59c0,0.86-.27,1.34-1.1,1.34s-1.21-.48-1.21-1.46v-6.7c0-1,.29-1.46,1.21-1.46,0.59,0,1.1.48,1.1,1.59v1h2.27v-1C5092.53,3556.47,5091.43,3554.82,5089.16,3554.82Zm16,0.18h-2.27v13.21h5.84v-2h-3.57V3555Zm7.12,0H5110v13.21h5.84v-2h-3.57V3555Zm6.75,3.09a1.11,1.11,0,0,1,1.13-1.3c0.51,0,1.12.33,1.21,1.46l2.16-.24c-0.2-1.87-1.3-3.2-3.15-3.2-2.23,0-3.51,1.19-3.51,3.29,0,3.79,4.61,4.48,4.61,7.1a1.17,1.17,0,0,1-1.32,1.21c-0.73,0-1.26-.66-1.35-2l-2.16.31c0.09,2,1.3,3.66,3.4,3.66s3.59-1.21,3.59-3.39C5123.61,3561.43,5119,3560.35,5119,3558.1Zm11,6.88c0,1-.38,1.45-1.21,1.45s-1.21-.48-1.21-1.45v-10h-2.27v9.88a3.48,3.48,0,1,0,7,0V3555H5130v10Zm9.37-2.42h0l-2.76-7.56h-2.1v13.21h2V3560h0l2.89,8.25h2V3555h-2v7.56Zm-43-7.56-2.43,13.21h2.2l1.63-10.58h0l1.63,10.58h2.2l-2.43-13.21h-2.82Zm54,4.34v-1.16a3.37,3.37,0,0,0-6.73,0V3565a3.37,3.37,0,1,0,6.73,0v-3.53h-3.65v2.24h1.45v1.51a1.17,1.17,0,1,1-2.34,0v-7.34a1.17,1.17,0,1,1,2.34,0v1.43h2.2Z" transform="translate(-4998.52 -3530.29)"/><g id="speaker"><circle cx="70.19" cy="14.32" r="3.67"/><circle cx="173.6" cy="14.32" r="5.65"/><path class="cls-3" d="M5172.13,3549.28a4.67,4.67,0,1,1,4.67-4.67A4.67,4.67,0,0,1,5172.13,3549.28Zm0-8.84a4.17,4.17,0,1,0,4.17,4.17A4.18,4.18,0,0,0,5172.13,3540.44Z" transform="translate(-4998.52 -3530.29)"/><circle cx="59.55" cy="14.32" r="3.67"/><rect class="cls-3" x="77.67" y="10.65" width="83.67" height="7.33" rx="3.67" ry="3.67"/><circle cx="82.89" cy="14.32" r="1.62"/><circle cx="91.03" cy="14.32" r="1.62"/><circle cx="99.16" cy="14.32" r="1.62"/><circle cx="107.3" cy="14.32" r="1.62"/><circle cx="115.43" cy="14.32" r="1.62"/><circle cx="123.57" cy="14.32" r="1.62"/><circle cx="131.7" cy="14.32" r="1.62"/><circle cx="139.84" cy="14.32" r="1.62"/><circle cx="147.97" cy="14.32" r="1.62"/><circle cx="156.11" cy="14.32" r="1.62"/></g></svg>